<svg data-v-423bf9ae="" xmlns="http://www.w3.org/2000/svg" viewBox="0 0 377 90" class="iconLeftSlogan"><!----><!----><!----><g data-v-423bf9ae="" id="ee9947da-722a-4a83-a86e-fe208a389299" fill="white" transform="matrix(5.736137646384677,0,0,5.736137646384677,105.92734135927634,-21.682600377640448)"><path d="M3.72 14.22L3.72 14.22L3.72 14.22Q2.42 14.22 1.57 13.17L1.57 13.17L1.57 13.17Q0.71 12.11 0.71 10.40L0.71 10.40L0.71 10.40Q0.71 8.69 1.30 7.29L1.30 7.29L1.30 7.29Q1.89 5.88 2.98 5.00L2.98 5.00L2.98 5.00Q4.07 4.12 5.31 4.12L5.31 4.12L5.31 4.12Q6.55 4.12 7.32 4.68L7.32 4.68L7.32 4.68Q8.08 5.24 8.08 6.01L8.08 6.01L8.08 6.01Q8.08 6.79 7.62 7.34L7.62 7.34L7.62 7.34Q7.17 7.34 6.61 7.14L6.61 7.14L6.61 7.14Q6.05 6.94 5.77 6.66L5.77 6.66L6.03 5.25L6.03 5.25Q5.70 5.04 5.15 5.04L5.15 5.04L5.15 5.04Q4.30 5.04 3.64 6.50L3.64 6.50L3.64 6.50Q2.98 7.97 2.98 10.11L2.98 10.11L2.98 10.11Q2.98 11.52 3.45 12.16L3.45 12.16L3.45 12.16Q3.92 12.80 4.59 12.80L4.59 12.80L4.59 12.80Q5.70 12.80 6.72 11.76L6.72 11.76L7.29 12.28L7.29 12.28Q7.14 12.50 6.73 12.89L6.73 12.89L6.73 12.89Q6.33 13.29 5.94 13.55L5.94 13.55L5.94 13.55Q5.54 13.80 4.94 14.01L4.94 14.01L4.94 14.01Q4.34 14.22 3.72 14.22ZM10.91 8.72L10.91 8.72L10.91 8.72Q10.91 9.31 10.53 10.75L10.53 10.75L10.53 10.75Q10.15 12.18 10.15 12.62L10.15 12.62L10.15 12.62Q10.15 13.06 10.28 13.06L10.28 13.06L10.28 13.06Q10.36 13.06 10.92 12.80L10.92 12.80L11.09 12.71L11.33 13.20L11.33 13.20Q11.20 13.31 10.99 13.48L10.99 13.48L10.99 13.48Q10.78 13.65 10.21 13.94L10.21 13.94L10.21 13.94Q9.63 14.22 9.14 14.22L9.14 14.22L9.14 14.22Q8.65 14.22 8.37 13.92L8.37 13.92L8.37 13.92Q8.09 13.62 8.09 13.11L8.09 13.11L8.09 13.11Q8.09 12.60 8.44 11.29L8.44 11.29L8.44 11.29Q8.79 9.98 8.79 9.59L8.79 9.59L8.79 9.59Q8.79 9.00 8.43 8.48L8.43 8.48L8.30 8.32L8.32 8.13L8.32 8.13Q9.06 7.92 10.72 7.92L10.72 7.92L10.72 7.92Q10.91 8.13 10.91 8.72ZM9.31 6.39L9.31 6.39L9.31 6.39Q9.03 6.12 9.03 5.66L9.03 5.66L9.03 5.66Q9.03 5.19 9.41 4.84L9.41 4.84L9.41 4.84Q9.80 4.49 10.30 4.49L10.30 4.49L10.30 4.49Q10.81 4.49 11.09 4.77L11.09 4.77L11.09 4.77Q11.37 5.05 11.37 5.51L11.37 5.51L11.37 5.51Q11.37 5.96 10.97 6.31L10.97 6.31L10.97 6.31Q10.57 6.66 10.08 6.66L10.08 6.66L10.08 6.66Q9.59 6.66 9.31 6.39ZM12.19 14.10L12.19 14.10L11.93 14.10L11.93 14.10Q11.93 13.44 12.33 11.58L12.33 11.58L12.33 11.58Q12.73 9.72 12.73 9.46L12.73 9.46L12.73 9.46Q12.73 9.00 12.33 8.48L12.33 8.48L12.21 8.32L12.22 8.13L12.22 8.13Q12.98 7.92 14.64 7.92L14.64 7.92L14.64 7.92Q14.83 8.16 14.84 8.79L14.84 8.79L14.84 8.79Q16.06 7.85 16.90 7.85L16.90 7.85L16.90 7.85Q17.40 7.85 17.70 8.20L17.70 8.20L17.70 8.20Q18.00 8.55 18.00 9.08L18.00 9.08L18.00 9.08Q18.00 9.60 17.68 10.89L17.68 10.89L17.68 10.89Q17.36 12.18 17.36 12.62L17.36 12.62L17.36 12.62Q17.36 13.06 17.47 13.06L17.47 13.06L17.47 13.06Q17.56 13.06 18.06 12.80L18.06 12.80L18.23 12.71L18.48 13.20L18.48 13.20Q18.35 13.31 18.14 13.48L18.14 13.48L18.14 13.48Q17.93 13.65 17.37 13.94L17.37 13.94L17.37 13.94Q16.80 14.22 16.35 14.22L16.35 14.22L16.35 14.22Q15.33 14.22 15.33 13.06L15.33 13.06L15.33 13.06Q15.33 12.57 15.64 11.26L15.64 11.26L15.64 11.26Q15.96 9.94 15.96 9.56L15.96 9.56L15.96 9.56Q15.96 9.18 15.72 9.18L15.72 9.18L15.72 9.18Q15.32 9.18 14.73 9.53L14.73 9.53L14.73 9.53Q14.69 9.77 14.45 10.79L14.45 10.79L14.45 10.79Q13.96 12.99 13.96 13.90L13.96 13.90L13.96 13.90Q13.47 14.10 12.19 14.10ZM18.87 11.63L18.87 11.63L18.87 11.63Q18.87 9.88 19.93 8.87L19.93 8.87L19.93 8.87Q20.99 7.85 22.33 7.85L22.33 7.85L22.33 7.85Q23.16 7.85 23.69 8.26L23.69 8.26L23.69 8.26Q24.22 8.67 24.22 9.35L24.22 9.35L24.22 9.35Q24.22 10.02 23.88 10.49L23.88 10.49L23.88 10.49Q23.53 10.95 23.04 11.20L23.04 11.20L23.04 11.20Q22.05 11.69 21.22 11.82L21.22 11.82L20.89 11.86L20.89 11.86Q20.99 13.17 21.97 13.17L21.97 13.17L21.97 13.17Q22.30 13.17 22.68 13.01L22.68 13.01L22.68 13.01Q23.06 12.84 23.27 12.67L23.27 12.67L23.48 12.50L23.81 12.95L23.81 12.95Q23.70 13.10 23.37 13.36L23.37 13.36L23.37 13.36Q23.03 13.61 22.74 13.78L22.74 13.78L22.74 13.78Q21.92 14.22 20.96 14.22L20.96 14.22L20.96 14.22Q19.99 14.22 19.43 13.54L19.43 13.54L19.43 13.54Q18.87 12.85 18.87 11.63ZM20.87 11.17L20.87 11.17Q21.59 11.05 22.01 10.57L22.01 10.57L22.01 10.57Q22.43 10.09 22.43 9.34L22.43 9.34L22.43 9.34Q22.43 8.58 21.98 8.58L21.98 8.58L21.98 8.58Q21.45 8.58 21.16 9.49L21.16 9.49L21.16 9.49Q20.87 10.39 20.87 11.17L20.87 11.17ZM31.09 14.22L31.09 14.22Q30.55 14.22 30.20 13.87L30.20 13.87L30.20 13.87Q29.85 13.51 29.85 12.90L29.85 12.90L29.85 12.90Q29.85 12.29 30.46 9.45L30.46 9.45L30.46 9.45Q30.10 9.37 29.29 9.37L29.29 9.37L29.29 9.37Q28.48 9.37 27.73 9.51L27.73 9.51L27.73 9.51Q27.02 12.73 26.98 13.82L26.98 13.82L26.98 13.82Q26.47 14.10 24.85 14.10L24.85 14.10L24.71 14.10L24.71 14.10Q24.75 13.48 25.46 10.42L25.46 10.42L25.46 10.42Q26.17 7.35 26.33 5.81L26.33 5.81L26.33 5.81Q26.33 5.59 26.19 5.27L26.19 5.27L26.19 5.27Q26.05 4.96 25.91 4.76L25.91 4.76L25.76 4.56L25.80 4.35L25.80 4.35Q26.63 4.12 28.42 4.12L28.42 4.12L28.42 4.12Q28.59 4.40 28.59 5.03L28.59 5.03L28.59 5.03Q28.59 5.66 27.96 8.50L27.96 8.50L30.66 8.50L30.66 8.50Q31.15 6.01 31.16 4.94L31.16 4.94L31.16 4.94Q31.16 4.70 31.14 4.55L31.14 4.55L31.14 4.55Q32.26 4.12 33.39 4.12L33.39 4.12L33.39 4.12Q33.43 4.20 33.43 4.54L33.43 4.54L33.43 4.54Q33.43 5.31 32.75 8.50L32.75 8.50L32.75 8.50Q32.07 11.69 32.07 12.56L32.07 12.56L32.07 12.56Q32.07 12.94 32.20 12.94L32.20 12.94L32.20 12.94Q32.33 12.94 33.05 12.57L33.05 12.57L33.31 13.09L33.31 13.09Q32.06 14.22 31.09 14.22L31.09 14.22ZM34.16 13.00L34.16 13.00L34.16 13.00Q34.16 12.40 34.52 10.96L34.52 10.96L34.52 10.96Q34.89 9.51 34.89 9.18L34.89 9.18L34.89 9.18Q34.89 8.85 34.38 8.30L34.38 8.30L34.40 8.12L34.40 8.12Q35.35 7.92 36.90 7.92L36.90 7.92L36.90 7.92Q36.97 8.11 36.97 8.58L36.97 8.58L36.97 8.58Q36.97 9.06 36.58 10.61L36.58 10.61L36.58 10.61Q36.19 12.17 36.19 12.54L36.19 12.54L36.19 12.54Q36.19 12.92 36.47 12.92L36.47 12.92L36.47 12.92Q36.88 12.92 37.41 12.63L37.41 12.63L37.41 12.63Q37.46 12.29 37.69 11.34L37.69 11.34L37.69 11.34Q38.19 9.10 38.19 8.13L38.19 8.13L38.19 8.13Q38.68 7.94 39.96 7.94L39.96 7.94L40.22 7.94L40.22 7.94Q40.22 8.60 39.83 10.51L39.83 10.51L39.83 10.51Q39.44 12.42 39.44 12.75L39.44 12.75L39.44 12.75Q39.44 13.08 39.58 13.08L39.58 13.08L39.58 13.08Q39.66 13.08 40.38 12.74L40.38 12.74L40.64 13.19L40.64 13.19Q39.40 14.22 38.46 14.22L38.46 14.22L38.46 14.22Q38.01 14.22 37.70 13.97L37.70 13.97L37.70 13.97Q37.38 13.72 37.34 13.31L37.34 13.31L37.34 13.31Q36.20 14.24 35.28 14.24L35.28 14.24L35.28 14.24Q34.79 14.24 34.48 13.92L34.48 13.92L34.48 13.92Q34.16 13.59 34.16 13.00ZM44.66 4.28L44.66 4.28L44.66 4.28Q44.66 5.35 43.95 8.46L43.95 8.46L43.95 8.46Q44.79 7.85 45.46 7.85L45.46 7.85L45.46 7.85Q46.14 7.85 46.63 8.42L46.63 8.42L46.63 8.42Q47.11 8.99 47.11 10.15L47.11 10.15L47.11 10.15Q47.11 12.10 46.35 13.16L46.35 13.16L46.35 13.16Q45.58 14.22 44.49 14.22L44.49 14.22L44.49 14.22Q44.09 14.22 43.67 14.13L43.67 14.13L43.67 14.13Q43.26 14.03 43.05 13.92L43.05 13.92L42.84 13.82L42.84 13.82Q41.94 14.13 41.09 14.13L41.09 14.13L41.09 14.13Q41.01 14.06 41.01 13.45L41.01 13.45L41.01 13.45Q41.01 12.84 41.79 9.42L41.79 9.42L41.79 9.42Q42.57 5.99 42.57 4.73L42.57 4.73L42.57 4.73Q42.57 4.51 42.50 4.16L42.50 4.16L42.50 4.16Q43.60 3.78 44.59 3.78L44.59 3.78L44.59 3.78Q44.66 3.98 44.66 4.28ZM44.53 9.04L44.53 9.04L44.53 9.04Q44.27 9.04 43.74 9.30L43.74 9.30L43.74 9.30Q43.09 12.01 43.04 13.19L43.04 13.19L43.04 13.19Q43.46 13.37 43.83 13.37L43.83 13.37L43.83 13.37Q44.37 13.37 44.72 12.39L44.72 12.39L44.72 12.39Q45.08 11.41 45.08 10.23L45.08 10.23L45.08 10.23Q45.08 9.04 44.53 9.04Z"></path></g><!----><g data-v-423bf9ae="" id="365ace0d-ae14-4e7d-85e2-35eeb310c69a" transform="matrix(2.8125,0,0,2.8125,0,0)" stroke="none" fill="white"><path d="M16 32c8.837 0 16-7.163 16-16S24.837 0 16 0 0 7.163 0 16s7.163 16 16 16zM14.817 6.421h2v8.886h8.887v2H14.817V6.421zm-5.959.437h2v14.283h14.283v2H8.858V6.858z"></path></g><!----><g data-v-423bf9ae="" id="73cdf15a-f138-4be4-a1c4-87b3f6b94b41" fill="white" transform="matrix(0.6286226568022175,0,0,0.6286226568022175,110.0021990021412,59.69915801106662)"><path d="M5.56 1.12L5.56 1.12Q5.53 0.90 4.79 1.07L4.79 1.07L4.79 1.07Q4.06 1.25 4.10 1.51L4.10 1.51L4.10 1.51Q4.29 2.73 4.06 4.12L4.06 4.12L4.06 4.12Q3.79 5.76 3.04 6.75L3.04 6.75L3.04 6.75Q2.89 6.95 2.64 7.16L2.64 7.16L2.64 7.16Q2.57 7.23 2.46 7.29L2.46 7.29L2.46 7.29Q2.47 7.29 2.39 7.34L2.39 7.34L2.38 7.34L2.38 7.34Q2.38 7.34 2.38 7.34L2.38 7.34L2.38 7.34Q2.30 7.36 2.24 7.38L2.24 7.38L2.23 7.37L2.23 7.37Q2.22 7.37 2.21 7.37L2.21 7.37L2.21 7.37Q2.18 7.36 2.11 7.35L2.11 7.35L2.11 7.35Q2.11 7.35 2.08 7.33L2.08 7.33L2.08 7.33Q2.07 7.33 2.05 7.33L2.05 7.33L2.05 7.33Q1.46 7.06 1.46 5.83L1.46 5.83L1.46 5.83Q1.46 4.47 2.43 1.59L2.43 1.59L2.43 1.59Q2.51 1.34 1.84 1.46L1.84 1.46L1.84 1.46Q1.07 1.60 0.98 1.85L0.98 1.85L0.98 1.85Q0.12 4.44 0.01 5.87L0.01 5.87L0.01 5.87Q-0.08 7.12 0.43 7.65L0.43 7.65L0.43 7.65Q0.70 7.94 1.31 7.96L1.31 7.96L1.31 7.96Q1.46 7.97 1.61 7.96L1.61 7.96L1.61 7.96Q1.56 8.59 1.03 10.68L1.03 10.68L1.03 10.68Q0.97 10.94 1.61 10.82L1.61 10.82L1.61 10.82Q1.92 10.77 2.17 10.65L2.17 10.65L2.17 10.65Q2.45 10.52 2.47 10.42L2.47 10.42L2.47 10.42Q3.01 8.28 3.08 7.59L3.08 7.59L3.08 7.59Q3.12 7.57 3.12 7.57L3.12 7.57L3.12 7.57Q4.71 6.90 5.33 4.67L5.33 4.67L5.33 4.67Q5.83 2.84 5.56 1.12L5.56 1.12ZM15.24 5.20L15.24 5.20Q15.12 6.64 14.85 7.92L14.85 7.92L14.85 7.92Q14.44 9.88 13.67 10.64L13.67 10.64L13.67 10.64Q13.58 10.55 13.51 10.38L13.51 10.38L13.51 10.38Q13.32 9.97 13.34 9.03L13.34 9.03L13.34 9.03Q13.36 7.34 13.94 5.48L13.94 5.48L13.94 5.48Q14.44 3.85 15.13 3.01L15.13 3.01L15.13 3.01Q15.21 3.25 15.26 3.62L15.26 3.62L15.26 3.62Q15.33 4.21 15.24 5.20L15.24 5.20ZM16.17 1.96L16.17 1.96Q15.97 1.79 15.23 2.05L15.23 2.05L15.23 2.05Q14.73 2.24 14.75 2.39L14.75 2.39L14.75 2.39Q14.50 2.48 14.32 2.63L14.32 2.63L14.32 2.63Q13.34 3.40 12.67 5.22L12.67 5.22L12.67 5.22Q12.13 6.70 11.94 8.50L11.94 8.50L11.94 8.50Q11.85 9.28 11.88 9.92L11.88 9.92L11.88 9.92Q11.92 10.77 12.28 11.13L12.28 11.13L12.28 11.13Q12.47 11.31 12.90 11.33L12.90 11.33L12.90 11.33Q13.44 11.36 14.27 11.02L14.27 11.02L14.27 11.02Q14.95 10.74 15.47 9.94L15.47 9.94L15.47 9.94Q15.94 9.21 16.26 7.85L16.26 7.85L16.26 7.85Q16.47 6.94 16.59 5.84L16.59 5.84L16.59 5.84Q16.75 4.44 16.75 3.78L16.75 3.78L16.75 3.78Q16.74 2.45 16.17 1.96L16.17 1.96ZM28.07 2.21L28.07 2.21Q27.43 2.38 27.40 2.63L27.40 2.63L27.40 2.63Q27.34 3.01 27.19 4.51L27.19 4.51L27.19 4.51Q27.06 5.69 26.93 6.41L26.93 6.41L26.93 6.41Q26.52 8.57 25.42 9.83L25.42 9.83L25.42 9.83Q25.27 10.00 25.16 10.12L25.16 10.12L25.16 10.12Q24.90 9.61 24.86 8.40L24.86 8.40L24.86 8.40Q24.81 6.90 25.73 4.58L25.73 4.58L25.73 4.58Q26.41 2.88 26.58 2.40L26.58 2.40L26.58 2.40Q26.67 2.15 26.00 2.26L26.00 2.26L26.00 2.26Q25.22 2.41 25.14 2.66L25.14 2.66L25.14 2.66Q24.97 3.12 24.42 4.53L24.42 4.53L24.42 4.53Q23.95 5.71 23.74 6.43L23.74 6.43L23.74 6.43Q23.08 8.66 23.65 10.36L23.65 10.36L23.65 10.36Q23.75 10.68 23.95 10.83L23.95 10.83L23.95 10.83Q24.18 11.03 24.82 10.92L24.82 10.92L24.82 10.92Q25.83 10.73 26.74 9.71L26.74 9.71L26.74 9.71Q27.91 8.41 28.34 6.34L28.34 6.34L28.34 6.34Q28.50 5.55 28.64 4.29L28.64 4.29L28.64 4.29Q28.81 2.58 28.86 2.24L28.86 2.24L28.86 2.24Q28.88 2.11 28.49 2.14L28.49 2.14L28.49 2.14Q28.24 2.16 28.07 2.21L28.07 2.21ZM39.30 5.31L39.30 5.31Q39.15 6.24 38.25 7.18L38.25 7.18L38.25 7.18Q38.06 7.38 37.82 7.58L37.82 7.58L37.82 7.58Q37.76 7.63 37.70 7.68L37.70 7.68L37.70 7.68Q37.48 7.59 37.23 7.58L37.23 7.58L37.23 7.58Q37.79 4.74 37.93 2.66L37.93 2.66L37.93 2.66Q38.20 2.80 38.44 2.99L38.44 2.99L38.44 2.99Q38.95 3.39 39.18 4.03L39.18 4.03L39.18 4.03Q39.41 4.65 39.30 5.31L39.30 5.31ZM36.33 2.40L36.33 2.40Q36.33 2.40 36.34 2.39L36.34 2.39L36.34 2.39Q36.33 2.40 36.33 2.40L36.33 2.40ZM41.26 11.42L41.26 11.42Q40.53 10.88 39.00 8.99L39.00 8.99L39.00 8.99Q38.33 8.17 38.21 8.05L38.21 8.05L38.21 8.05Q38.67 7.84 39.10 7.50L39.10 7.50L39.10 7.50Q40.30 6.56 40.66 5.41L40.66 5.41L40.66 5.41Q40.91 4.60 40.70 3.84L40.70 3.84L40.70 3.84Q40.49 3.07 39.87 2.53L39.87 2.53L39.87 2.53Q38.62 1.46 36.55 1.88L36.55 1.88L36.55 1.88Q36.42 1.91 36.22 1.96L36.22 1.96L36.22 1.96Q35.49 2.14 35.55 2.37L35.55 2.37L35.55 2.37Q35.61 2.58 36.32 2.40L36.32 2.40L36.32 2.40Q36.39 2.39 36.44 2.38L36.44 2.38L36.44 2.38Q36.48 2.37 36.51 2.37L36.51 2.37L36.51 2.37Q36.39 5.11 35.16 10.79L35.16 10.79L35.16 10.79Q35.10 11.04 35.74 10.92L35.74 10.92L35.74 10.92Q36.05 10.87 36.30 10.75L36.30 10.75L36.30 10.75Q36.58 10.62 36.60 10.53L36.60 10.53L36.60 10.53Q36.89 9.17 36.99 8.72L36.99 8.72L36.99 8.72Q37.00 8.72 37.00 8.72L37.00 8.72L37.00 8.72Q37.00 8.72 37.00 8.72L37.00 8.72L37.00 8.72Q37.11 8.85 37.80 9.70L37.80 9.70L37.80 9.70Q39.12 11.34 39.88 11.92L39.88 11.92L39.88 11.92Q40.11 12.09 40.82 11.83L40.82 11.83L40.82 11.83Q41.01 11.76 41.15 11.67L41.15 11.67L41.15 11.67Q41.40 11.52 41.26 11.42L41.26 11.42ZM64.76 2.21L64.76 2.21Q64.72 2.05 64.17 2.15L64.17 2.15L64.17 2.15Q63.47 2.28 63.31 2.54L63.31 2.54L63.31 2.54Q62.43 4.03 61.50 6.51L61.50 6.51L61.50 6.41L61.50 6.41Q61.50 5.55 61.33 2.12L61.33 2.12L61.33 2.12Q61.33 2.03 61.09 2.02L61.09 2.02L61.09 2.02Q60.95 1.92 60.53 2.00L60.53 2.00L60.53 2.00Q59.82 2.13 59.68 2.39L59.68 2.39L59.68 2.39Q57.54 6.30 56.94 11.14L56.94 11.14L56.94 11.14Q56.92 11.27 57.31 11.23L57.31 11.23L57.31 11.23Q57.55 11.21 57.73 11.16L57.73 11.16L57.73 11.16Q58.37 10.99 58.40 10.75L58.40 10.75L58.40 10.75Q58.80 7.51 59.97 4.58L59.97 4.58L59.97 4.58Q60.03 5.81 60.03 6.71L60.03 6.71L60.03 6.71Q60.04 8.26 59.96 8.86L59.96 8.86L59.96 8.86Q59.77 10.15 59.77 10.99L59.77 10.99L59.77 10.99Q59.77 11.20 60.45 11.03L60.45 11.03L60.45 11.03Q61.13 10.86 61.22 10.66L61.22 10.66L61.22 10.66Q61.69 9.61 62.41 7.67L62.41 7.67L62.41 7.67Q63.20 5.54 63.57 4.66L63.57 4.66L63.57 4.66Q63.61 5.91 63.37 7.85L63.37 7.85L63.37 7.85Q63.03 10.57 63 11.04L63 11.04L63 11.04Q62.99 11.12 63.21 11.12L63.21 11.12L63.21 11.12Q63.43 11.13 63.71 11.08L63.71 11.08L63.71 11.08Q64.44 10.94 64.46 10.65L64.46 10.65L64.46 10.65Q64.52 9.88 64.70 8.54L64.70 8.54L64.70 8.54Q64.89 7.03 64.95 6.43L64.95 6.43L64.95 6.43Q65.19 3.95 64.76 2.21L64.76 2.21ZM75.35 5.20L75.35 5.20Q75.22 6.64 74.96 7.92L74.96 7.92L74.96 7.92Q74.55 9.88 73.77 10.64L73.77 10.64L73.77 10.64Q73.68 10.55 73.61 10.38L73.61 10.38L73.61 10.38Q73.42 9.97 73.44 9.03L73.44 9.03L73.44 9.03Q73.47 7.34 74.04 5.48L74.04 5.48L74.04 5.48Q74.54 3.85 75.24 3.01L75.24 3.01L75.24 3.01Q75.31 3.25 75.36 3.62L75.36 3.62L75.36 3.62Q75.43 4.21 75.35 5.20L75.35 5.20ZM76.28 1.96L76.28 1.96Q76.07 1.79 75.33 2.05L75.33 2.05L75.33 2.05Q74.83 2.24 74.85 2.39L74.85 2.39L74.85 2.39Q74.60 2.48 74.42 2.63L74.42 2.63L74.42 2.63Q73.44 3.40 72.78 5.22L72.78 5.22L72.78 5.22Q72.23 6.70 72.04 8.50L72.04 8.50L72.04 8.50Q71.96 9.28 71.98 9.92L71.98 9.92L71.98 9.92Q72.02 10.77 72.39 11.13L72.39 11.13L72.39 11.13Q72.57 11.31 73.00 11.33L73.00 11.33L73.00 11.33Q73.54 11.36 74.37 11.02L74.37 11.02L74.37 11.02Q75.05 10.74 75.57 9.94L75.57 9.94L75.57 9.94Q76.04 9.21 76.36 7.85L76.36 7.85L76.36 7.85Q76.57 6.94 76.69 5.84L76.69 5.84L76.69 5.84Q76.86 4.44 76.86 3.78L76.86 3.78L76.86 3.78Q76.84 2.45 76.28 1.96L76.28 1.96ZM89.09 2.13L89.09 2.13Q89.04 1.90 88.31 2.08L88.31 2.08L88.31 2.08Q87.57 2.27 87.62 2.52L87.62 2.52L87.62 2.52Q87.73 3.04 87.55 3.73L87.55 3.73L87.55 3.73Q87.50 3.96 87.38 4.33L87.38 4.33L87.38 4.33Q87.25 4.77 87.21 4.92L87.21 4.92L87.21 4.92Q86.84 6.24 86.60 6.97L86.60 6.97L86.60 6.97Q86.26 7.99 85.95 8.65L85.95 8.65L85.95 8.65Q85.98 2.78 85.96 2.18L85.96 2.18L85.96 2.18Q85.96 2.09 85.72 2.08L85.72 2.08L85.72 2.08Q85.50 2.07 85.22 2.13L85.22 2.13L85.22 2.13Q84.49 2.29 84.49 2.58L84.49 2.58L84.49 2.58Q84.55 4.06 84.51 6.67L84.51 6.67L84.51 6.67Q84.47 9.59 84.49 10.75L84.49 10.75L84.49 10.75Q84.49 10.93 85.09 10.82L85.09 10.82L85.09 10.82Q85.63 10.72 85.89 10.50L85.89 10.50L85.89 10.50Q87.12 9.40 88.02 6.77L88.02 6.77L88.02 6.77Q88.25 6.07 88.65 4.65L88.65 4.65L88.65 4.65Q89.20 2.69 89.09 2.13L89.09 2.13ZM96.87 2.53L96.87 2.53Q96.62 3.62 96.00 6.79L96.00 6.79L96.00 6.79Q95.76 8.03 95.57 8.93L95.57 8.93L95.57 8.93Q95.18 10.78 95.18 10.91L95.18 10.91L95.18 10.91Q95.18 10.99 95.40 11.00L95.40 11.00L95.40 11.00Q95.62 11.01 95.90 10.96L95.90 10.96L95.90 10.96Q96.63 10.81 96.64 10.52L96.64 10.52L96.64 10.52Q96.65 10.23 96.80 9.62L96.80 9.62L96.80 9.62Q96.88 9.32 97.04 8.57L97.04 8.57L97.04 8.57Q97.21 7.77 97.47 6.44L97.47 6.44L97.47 6.44Q98.06 3.36 98.31 2.27L98.31 2.27L98.31 2.27Q98.36 2.02 97.72 2.13L97.72 2.13L97.72 2.13Q97.42 2.19 97.17 2.31L97.17 2.31L97.17 2.31Q96.89 2.44 96.87 2.53L96.87 2.53ZM109.66 1.42L109.66 1.42Q108.94 1.19 107.76 1.57L107.76 1.57L107.76 1.57Q106.25 2.06 105.69 3.77L105.69 3.77L105.69 3.77Q105.34 4.83 105.52 6.11L105.52 6.11L105.52 6.11Q105.61 6.76 105.88 7.16L105.88 7.16L105.88 7.16Q105.46 7.38 105.16 7.70L105.16 7.70L105.16 7.70Q104.17 8.80 104.28 10.01L104.28 10.01L104.28 10.01Q104.34 10.70 104.82 11.11L104.82 11.11L104.82 11.11Q105.22 11.44 106.05 11.42L106.05 11.42L106.05 11.42Q106.88 11.39 107.58 10.95L107.58 10.95L107.58 10.95Q108.34 10.49 108.64 9.76L108.64 9.76L108.64 9.76Q108.70 9.61 108.42 9.60L108.42 9.60L108.42 9.60Q108.25 9.59 108.06 9.63L108.06 9.63L108.06 9.63Q107.30 9.76 107.20 10.02L107.20 10.02L107.20 10.02Q107.00 10.51 106.65 10.80L106.65 10.80L106.65 10.80Q106.64 10.81 106.63 10.82L106.63 10.82L106.63 10.82Q106.58 10.81 106.57 10.81L106.57 10.81L106.57 10.81Q106.50 10.79 106.42 10.75L106.42 10.75L106.42 10.75Q106.26 10.68 106.10 10.52L106.10 10.52L106.10 10.52Q105.81 10.23 105.74 9.63L105.74 9.63L105.74 9.63Q105.64 8.83 106.27 7.86L106.27 7.86L106.27 7.86Q106.35 7.74 106.46 7.62L106.46 7.62L106.46 7.62Q106.67 7.70 106.94 7.72L106.94 7.72L106.94 7.72Q107.34 7.74 107.84 7.51L107.84 7.51L107.84 7.51Q108.25 7.32 108.10 7.18L108.10 7.18L108.10 7.18Q107.82 6.90 107.39 6.84L107.39 6.84L107.39 6.84Q107.35 6.79 107.32 6.75L107.32 6.75L107.32 6.75Q107.11 6.45 107.00 5.89L107.00 5.89L107.00 5.89Q106.81 4.89 107.00 4.00L107.00 4.00L107.00 4.00Q107.26 2.70 108.03 2.04L108.03 2.04L108.03 2.04Q108.08 2.00 108.18 1.93L108.18 1.93L108.18 1.93Q108.19 1.93 108.19 1.93L108.19 1.93L108.19 1.93Q108.32 1.94 108.29 1.93L108.29 1.93L108.29 1.93Q108.88 2.02 108.76 2.62L108.76 2.62L108.76 2.62Q108.71 2.86 109.34 2.75L109.34 2.75L109.34 2.75Q109.65 2.69 109.90 2.58L109.90 2.58L109.90 2.58Q110.18 2.45 110.20 2.36L110.20 2.36L110.20 2.36Q110.34 1.63 109.66 1.42L109.66 1.42ZM127.43 0.96L127.43 0.96Q127.36 2.90 126.96 5.58L126.96 5.58L126.96 5.58Q126.51 8.59 126.31 9.82L126.31 9.82L126.31 9.82Q126 11.07 125.70 11.91L125.70 11.91L125.70 11.91Q125.45 12.60 125.17 13.11L125.17 13.11L125.17 13.11Q125.07 13.30 124.95 13.46L124.95 13.46L124.95 13.46Q124.91 13.38 124.87 13.29L124.87 13.29L124.87 13.29Q124.58 12.62 124.81 12.00L124.81 12.00L124.81 12.00Q124.91 11.75 124.23 11.87L124.23 11.87L124.23 11.87Q123.47 12.01 123.38 12.26L123.38 12.26L123.38 12.26Q123.16 12.86 123.38 13.58L123.38 13.58L123.38 13.58Q123.57 14.25 124.29 14.26L124.29 14.26L124.29 14.26Q125.25 14.27 125.97 13.68L125.97 13.68L125.97 13.68Q126.31 13.40 126.65 12.76L126.65 12.76L126.65 12.76Q127.11 11.91 127.54 10.35L127.54 10.35L127.54 10.35Q127.70 9.79 127.95 8.12L127.95 8.12L127.95 8.12Q128.80 3.05 128.88 0.57L128.88 0.57L128.88 0.57Q128.88 0.49 128.66 0.48L128.66 0.48L128.66 0.48Q128.45 0.47 128.17 0.53L128.17 0.53L128.17 0.53Q127.44 0.67 127.43 0.96L127.43 0.96ZM139.03 5.20L139.03 5.20Q138.91 6.64 138.64 7.92L138.64 7.92L138.64 7.92Q138.23 9.88 137.46 10.64L137.46 10.64L137.46 10.64Q137.37 10.55 137.29 10.38L137.29 10.38L137.29 10.38Q137.11 9.97 137.12 9.03L137.12 9.03L137.12 9.03Q137.15 7.34 137.72 5.48L137.72 5.48L137.72 5.48Q138.22 3.85 138.92 3.01L138.92 3.01L138.92 3.01Q139.00 3.25 139.04 3.62L139.04 3.62L139.04 3.62Q139.11 4.21 139.03 5.20L139.03 5.20ZM139.96 1.96L139.96 1.96Q139.75 1.79 139.02 2.05L139.02 2.05L139.02 2.05Q138.52 2.24 138.54 2.39L138.54 2.39L138.54 2.39Q138.28 2.48 138.11 2.63L138.11 2.63L138.11 2.63Q137.12 3.40 136.46 5.22L136.46 5.22L136.46 5.22Q135.91 6.70 135.72 8.50L135.72 8.50L135.72 8.50Q135.64 9.28 135.67 9.92L135.67 9.92L135.67 9.92Q135.71 10.77 136.07 11.13L136.07 11.13L136.07 11.13Q136.25 11.31 136.68 11.33L136.68 11.33L136.68 11.33Q137.22 11.36 138.05 11.02L138.05 11.02L138.05 11.02Q138.74 10.74 139.25 9.94L139.25 9.94L139.25 9.94Q139.73 9.21 140.04 7.85L140.04 7.85L140.04 7.85Q140.25 6.94 140.38 5.84L140.38 5.84L140.38 5.84Q140.54 4.44 140.54 3.78L140.54 3.78L140.54 3.78Q140.53 2.45 139.96 1.96L139.96 1.96ZM151.85 2.21L151.85 2.21Q151.22 2.38 151.18 2.63L151.18 2.63L151.18 2.63Q151.13 3.01 150.97 4.51L150.97 4.51L150.97 4.51Q150.85 5.69 150.71 6.41L150.71 6.41L150.71 6.41Q150.31 8.57 149.21 9.83L149.21 9.83L149.21 9.83Q149.06 10.00 148.95 10.12L148.95 10.12L148.95 10.12Q148.69 9.61 148.65 8.40L148.65 8.40L148.65 8.40Q148.59 6.90 149.52 4.58L149.52 4.58L149.52 4.58Q150.20 2.88 150.36 2.40L150.36 2.40L150.36 2.40Q150.45 2.15 149.78 2.26L149.78 2.26L149.78 2.26Q149.01 2.41 148.92 2.66L148.92 2.66L148.92 2.66Q148.76 3.12 148.20 4.53L148.20 4.53L148.20 4.53Q147.74 5.71 147.53 6.43L147.53 6.43L147.53 6.43Q146.86 8.66 147.43 10.36L147.43 10.36L147.43 10.36Q147.53 10.68 147.73 10.83L147.73 10.83L147.73 10.83Q147.96 11.03 148.61 10.92L148.61 10.92L148.61 10.92Q149.62 10.73 150.53 9.71L150.53 9.71L150.53 9.71Q151.70 8.41 152.13 6.34L152.13 6.34L152.13 6.34Q152.28 5.55 152.42 4.29L152.42 4.29L152.42 4.29Q152.60 2.58 152.65 2.24L152.65 2.24L152.65 2.24Q152.66 2.11 152.28 2.14L152.28 2.14L152.28 2.14Q152.02 2.16 151.85 2.21L151.85 2.21ZM163.08 5.31L163.08 5.31Q162.93 6.24 162.04 7.18L162.04 7.18L162.04 7.18Q161.85 7.38 161.61 7.58L161.61 7.58L161.61 7.58Q161.55 7.63 161.49 7.68L161.49 7.68L161.49 7.68Q161.27 7.59 161.01 7.58L161.01 7.58L161.01 7.58Q161.57 4.74 161.72 2.66L161.72 2.66L161.72 2.66Q161.98 2.80 162.22 2.99L162.22 2.99L162.22 2.99Q162.74 3.39 162.97 4.03L162.97 4.03L162.97 4.03Q163.19 4.65 163.08 5.31L163.08 5.31ZM160.11 2.40L160.11 2.40Q160.11 2.40 160.13 2.39L160.13 2.39L160.13 2.39Q160.12 2.40 160.11 2.40L160.11 2.40ZM165.05 11.42L165.05 11.42Q164.32 10.88 162.78 8.99L162.78 8.99L162.78 8.99Q162.11 8.17 162.00 8.05L162.00 8.05L162.00 8.05Q162.46 7.84 162.89 7.50L162.89 7.50L162.89 7.50Q164.09 6.56 164.45 5.41L164.45 5.41L164.45 5.41Q164.69 4.60 164.49 3.84L164.49 3.84L164.49 3.84Q164.27 3.07 163.65 2.53L163.65 2.53L163.65 2.53Q162.41 1.46 160.34 1.88L160.34 1.88L160.34 1.88Q160.21 1.91 160.01 1.96L160.01 1.96L160.01 1.96Q159.27 2.14 159.33 2.37L159.33 2.37L159.33 2.37Q159.39 2.58 160.10 2.40L160.10 2.40L160.10 2.40Q160.17 2.39 160.22 2.38L160.22 2.38L160.22 2.38Q160.26 2.37 160.30 2.37L160.30 2.37L160.30 2.37Q160.18 5.11 158.94 10.79L158.94 10.79L158.94 10.79Q158.89 11.04 159.52 10.92L159.52 10.92L159.52 10.92Q159.83 10.87 160.08 10.75L160.08 10.75L160.08 10.75Q160.36 10.62 160.38 10.53L160.38 10.53L160.38 10.53Q160.68 9.17 160.77 8.72L160.77 8.72L160.77 8.72Q160.78 8.72 160.78 8.72L160.78 8.72L160.78 8.72Q160.79 8.72 160.79 8.72L160.79 8.72L160.79 8.72Q160.90 8.85 161.58 9.70L161.58 9.70L161.58 9.70Q162.90 11.34 163.67 11.92L163.67 11.92L163.67 11.92Q163.89 12.09 164.61 11.83L164.61 11.83L164.61 11.83Q164.79 11.76 164.94 11.67L164.94 11.67L164.94 11.67Q165.18 11.52 165.05 11.42L165.05 11.42ZM177.41 0.74L177.41 0.74Q177.10 0.79 176.85 0.91L176.85 0.91L176.85 0.91Q176.57 1.04 176.54 1.13L176.54 1.13L176.54 1.13Q175.66 3.96 175.04 7.39L175.04 7.39L175.04 7.39Q174.96 6.88 174.84 6.21L174.84 6.21L174.84 6.21Q174.55 4.44 174.50 4.05L174.50 4.05L174.50 4.05Q174.35 2.77 174.16 2.37L174.16 2.37L174.16 2.37Q174.16 2.37 174.15 2.35L174.15 2.35L174.15 2.34L174.15 2.34Q174.15 2.34 174.15 2.33L174.15 2.33L174.15 2.33Q174.19 2.08 173.56 2.20L173.56 2.20L173.56 2.20Q173.26 2.26 173.01 2.37L173.01 2.37L173.01 2.37Q172.72 2.51 172.71 2.60L172.71 2.60L172.71 2.60Q172.53 3.71 171.88 6.73L171.88 6.73L171.88 6.73Q171.34 9.34 171.13 10.89L171.13 10.89L171.13 10.89Q171.12 11.01 171.50 10.98L171.50 10.98L171.50 10.98Q171.75 10.96 171.92 10.91L171.92 10.91L171.92 10.91Q172.57 10.74 172.59 10.50L172.59 10.50L172.59 10.50Q172.79 8.97 173.35 6.38L173.35 6.38L173.35 6.38Q173.37 6.54 173.38 6.61L173.38 6.61L173.38 6.61Q173.60 7.90 173.78 8.95L173.78 8.95L173.78 8.95Q174.04 10.45 174.26 11.09L174.26 11.09L174.26 11.09Q174.32 11.24 174.66 11.21L174.66 11.21L174.66 11.21Q174.97 11.18 175.31 11.05L175.31 11.05L175.31 11.05Q175.90 10.89 175.93 10.65L175.93 10.65L175.93 10.65Q176.70 5.00 177.99 0.87L177.99 0.87L177.99 0.87Q178.07 0.62 177.41 0.74L177.41 0.74ZM188.62 1.42L188.62 1.42Q187.91 1.19 186.73 1.57L186.73 1.57L186.73 1.57Q185.22 2.06 184.66 3.77L184.66 3.77L184.66 3.77Q184.31 4.83 184.49 6.11L184.49 6.11L184.49 6.11Q184.58 6.76 184.84 7.16L184.84 7.16L184.84 7.16Q184.43 7.38 184.13 7.70L184.13 7.70L184.13 7.70Q183.13 8.80 183.24 10.01L183.24 10.01L183.24 10.01Q183.31 10.70 183.79 11.11L183.79 11.11L183.79 11.11Q184.19 11.44 185.01 11.42L185.01 11.42L185.01 11.42Q185.85 11.39 186.55 10.95L186.55 10.95L186.55 10.95Q187.30 10.49 187.61 9.76L187.61 9.76L187.61 9.76Q187.67 9.61 187.39 9.60L187.39 9.60L187.39 9.60Q187.22 9.59 187.02 9.63L187.02 9.63L187.02 9.63Q186.27 9.76 186.17 10.02L186.17 10.02L186.17 10.02Q185.97 10.51 185.62 10.80L185.62 10.80L185.62 10.80Q185.61 10.81 185.60 10.82L185.60 10.82L185.60 10.82Q185.55 10.81 185.54 10.81L185.54 10.81L185.54 10.81Q185.47 10.79 185.39 10.75L185.39 10.75L185.39 10.75Q185.23 10.68 185.07 10.52L185.07 10.52L185.07 10.52Q184.78 10.23 184.71 9.63L184.71 9.63L184.71 9.63Q184.61 8.83 185.24 7.86L185.24 7.86L185.24 7.86Q185.32 7.74 185.42 7.62L185.42 7.62L185.42 7.62Q185.64 7.70 185.91 7.72L185.91 7.72L185.91 7.72Q186.31 7.74 186.81 7.51L186.81 7.51L186.81 7.51Q187.22 7.32 187.07 7.18L187.07 7.18L187.07 7.18Q186.79 6.90 186.36 6.84L186.36 6.84L186.36 6.84Q186.32 6.79 186.29 6.75L186.29 6.75L186.29 6.75Q186.08 6.45 185.97 5.89L185.97 5.89L185.97 5.89Q185.78 4.89 185.96 4.00L185.96 4.00L185.96 4.00Q186.23 2.70 187.00 2.04L187.00 2.04L187.00 2.04Q187.05 2.00 187.15 1.93L187.15 1.93L187.15 1.93Q187.15 1.93 187.15 1.93L187.15 1.93L187.15 1.93Q187.28 1.94 187.26 1.93L187.26 1.93L187.26 1.93Q187.84 2.02 187.73 2.62L187.73 2.62L187.73 2.62Q187.68 2.86 188.31 2.75L188.31 2.75L188.31 2.75Q188.62 2.69 188.87 2.58L188.87 2.58L188.87 2.58Q189.15 2.45 189.17 2.36L189.17 2.36L189.17 2.36Q189.31 1.63 188.62 1.42L188.62 1.42ZM200.81 1.12L200.81 1.12Q200.77 0.90 200.03 1.07L200.03 1.07L200.03 1.07Q199.30 1.25 199.34 1.51L199.34 1.51L199.34 1.51Q199.53 2.73 199.30 4.12L199.30 4.12L199.30 4.12Q199.04 5.76 198.28 6.75L198.28 6.75L198.28 6.75Q198.13 6.95 197.88 7.16L197.88 7.16L197.88 7.16Q197.81 7.23 197.70 7.29L197.70 7.29L197.70 7.29Q197.71 7.29 197.63 7.34L197.63 7.34L197.62 7.34L197.62 7.34Q197.62 7.34 197.62 7.34L197.62 7.34L197.62 7.34Q197.54 7.36 197.48 7.38L197.48 7.38L197.47 7.37L197.47 7.37Q197.46 7.37 197.46 7.37L197.46 7.37L197.46 7.37Q197.42 7.36 197.35 7.35L197.35 7.35L197.35 7.35Q197.35 7.35 197.32 7.33L197.32 7.33L197.32 7.33Q197.31 7.33 197.29 7.33L197.29 7.33L197.29 7.33Q196.70 7.06 196.70 5.83L196.70 5.83L196.70 5.83Q196.70 4.47 197.67 1.59L197.67 1.59L197.67 1.59Q197.75 1.34 197.08 1.46L197.08 1.46L197.08 1.46Q196.31 1.60 196.23 1.85L196.23 1.85L196.23 1.85Q195.36 4.44 195.25 5.87L195.25 5.87L195.25 5.87Q195.16 7.12 195.67 7.65L195.67 7.65L195.67 7.65Q195.95 7.94 196.55 7.96L196.55 7.96L196.55 7.96Q196.70 7.97 196.85 7.96L196.85 7.96L196.85 7.96Q196.80 8.59 196.27 10.68L196.27 10.68L196.27 10.68Q196.21 10.94 196.85 10.82L196.85 10.82L196.85 10.82Q197.16 10.77 197.42 10.65L197.42 10.65L197.42 10.65Q197.70 10.52 197.72 10.42L197.72 10.42L197.72 10.42Q198.26 8.28 198.32 7.59L198.32 7.59L198.32 7.59Q198.36 7.57 198.37 7.57L198.37 7.57L198.37 7.57Q199.95 6.90 200.57 4.67L200.57 4.67L200.57 4.67Q201.07 2.84 200.81 1.12L200.81 1.12ZM222.39 5.50L222.39 5.50Q222.84 4.74 223.05 3.53L223.05 3.53L223.05 3.53Q223.29 2.15 222.79 1.57L222.79 1.57L222.79 1.57Q222.50 1.22 221.75 1.27L221.75 1.27L221.75 1.27Q220.81 1.33 219.92 1.85L219.92 1.85L219.92 1.85Q218.67 2.59 218.06 4.34L218.06 4.34L218.06 4.34Q217.44 6.10 218.06 7.18L218.06 7.18L218.06 7.18Q218.35 7.68 219.73 8.17L219.73 8.17L219.73 8.17Q220.29 8.37 220.50 8.48L220.50 8.48L220.50 8.48Q220.94 8.74 221.03 9.11L221.03 9.11L221.03 9.11Q221.12 9.50 220.78 10.17L220.78 10.17L220.78 10.17Q220.60 10.51 220.32 10.76L220.32 10.76L220.32 10.76Q220.21 10.87 220.05 10.97L220.05 10.97L220.05 10.97Q219.97 11.02 219.95 11.03L219.95 11.03L219.95 11.03Q219.89 11.07 219.83 11.09L219.83 11.09L219.83 11.09Q219.93 11.05 219.80 11.10L219.80 11.10L219.80 11.10Q219.81 11.10 219.87 11.09L219.87 11.09L219.87 11.09Q219.83 11.09 219.78 11.09L219.78 11.09L219.78 11.09Q219.78 11.10 219.68 11.09L219.68 11.09L219.68 11.09Q219.63 11.09 219.48 11.05L219.48 11.05L219.48 11.05Q219.13 10.97 218.83 10.64L218.83 10.64L218.83 10.64Q218.61 10.39 218.52 9.93L218.52 9.93L218.52 9.93Q218.42 9.44 218.64 9.28L218.64 9.28L218.64 9.28Q218.84 9.13 218.82 9.06L218.82 9.06L218.82 9.06Q218.79 8.97 218.56 8.96L218.56 8.96L218.56 8.96Q217.94 8.95 217.53 9.24L217.53 9.24L217.53 9.24Q217.14 9.53 217.06 9.86L217.06 9.86L217.06 9.86Q216.98 10.20 217.14 10.62L217.14 10.62L217.14 10.62Q217.41 11.36 218.28 11.61L218.28 11.61L218.28 11.61Q219.17 11.87 220.44 11.37L220.44 11.37L220.44 11.37Q221.45 10.96 222.02 10.24L222.02 10.24L222.02 10.24Q222.39 9.76 222.48 9.24L222.48 9.24L222.48 9.24Q222.58 8.62 222.20 8.23L222.20 8.23L222.20 8.23Q221.94 7.96 221.38 7.75L221.38 7.75L221.38 7.75Q221.22 7.70 220.91 7.59L220.91 7.59L220.91 7.59Q220.62 7.50 220.49 7.44L220.49 7.44L220.49 7.44Q219.95 7.23 219.67 6.97L219.67 6.97L219.67 6.97Q219.37 6.69 219.27 5.96L219.27 5.96L219.27 5.96Q219.07 4.53 220.02 2.97L220.02 2.97L220.02 2.97Q220.44 2.29 220.94 1.95L220.94 1.95L220.94 1.95Q220.99 1.91 221.09 1.86L221.09 1.86L221.09 1.86Q221.08 1.86 221.14 1.84L221.14 1.84L221.14 1.84Q221.12 1.84 221.16 1.83L221.16 1.83L221.16 1.83Q221.14 1.84 221.18 1.83L221.18 1.83L221.18 1.83Q221.10 1.85 221.03 1.85L221.03 1.85L221.03 1.85Q221.05 1.85 221.03 1.85L221.03 1.85L221.05 1.85L221.05 1.85Q221.11 1.86 221.19 1.89L221.19 1.89L221.19 1.89Q221.20 1.89 221.30 1.96L221.30 1.96L221.30 1.96Q221.37 2.01 221.41 2.06L221.41 2.06L221.41 2.06Q221.53 2.20 221.59 2.45L221.59 2.45L221.59 2.45Q221.71 2.84 221.65 3.49L221.65 3.49L221.65 3.49Q221.53 4.81 220.95 5.76L220.95 5.76L220.95 5.76Q220.86 5.90 221.17 5.91L221.17 5.91L221.17 5.91Q221.37 5.92 221.53 5.89L221.53 5.89L221.53 5.89Q222.23 5.76 222.39 5.50L222.39 5.50ZM234.49 2.35L234.49 2.35Q233.53 2.17 232.52 2.15L232.52 2.15L232.52 2.15Q232.43 2.03 231.95 2.11L231.95 2.11L231.95 2.11Q231.85 2.13 231.74 2.16L231.74 2.16L231.74 2.16Q230.67 2.22 229.63 2.46L229.63 2.46L229.63 2.46Q228.89 2.63 228.96 2.88L228.96 2.88L228.96 2.88Q229.01 3.08 229.74 2.91L229.74 2.91L229.74 2.91Q229.74 2.91 229.76 2.90L229.76 2.90L229.76 2.90Q229.77 2.90 229.78 2.89L229.78 2.89L229.78 2.89Q229.86 2.88 230.02 2.85L230.02 2.85L230.02 2.85Q230.18 2.82 230.41 2.80L230.41 2.80L230.41 2.80Q230.69 2.76 231.02 2.75L231.02 2.75L231.02 2.75Q229.61 7.40 229.21 10.96L229.21 10.96L229.21 10.96Q229.20 11.02 229.43 11.03L229.43 11.03L229.43 11.03Q229.64 11.04 229.92 10.99L229.92 10.99L229.92 10.99Q230.64 10.86 230.67 10.56L230.67 10.56L230.67 10.56Q231.05 7.19 232.37 2.78L232.37 2.78L232.37 2.78Q232.84 2.82 233.28 2.91L233.28 2.91L233.28 2.91Q233.71 2.99 234.30 2.72L234.30 2.72L234.30 2.72Q234.46 2.65 234.55 2.54L234.55 2.54L234.55 2.54Q234.70 2.39 234.49 2.35L234.49 2.35ZM243.06 7.89L243.06 7.89Q242.96 7.90 242.05 7.84L242.05 7.84L242.05 7.84Q242.46 6.63 242.92 5.57L242.92 5.57L242.92 5.57Q243.09 5.18 243.63 3.95L243.63 3.95L243.63 3.95Q243.61 4.61 243.43 7.85L243.43 7.85L243.43 7.85Q243.26 7.87 243.06 7.89L243.06 7.89ZM244.87 1.18L244.87 1.18Q244.69 1.09 244.30 1.16L244.30 1.16L244.30 1.16Q243.66 1.27 243.45 1.55L243.45 1.55L243.45 1.55Q243.25 1.80 242.47 3.58L242.47 3.58L242.47 3.58Q242.33 3.90 241.97 4.70L241.97 4.70L241.97 4.70Q241.66 5.42 241.48 5.83L241.48 5.83L241.48 5.83Q241.06 6.79 240.69 7.86L240.69 7.86L240.69 7.86Q239.76 7.97 239.11 8.37L239.11 8.37L239.11 8.37Q238.94 8.48 238.96 8.58L238.96 8.58L238.96 8.58Q238.99 8.67 239.20 8.68L239.20 8.68L239.20 8.68Q239.72 8.70 240.19 8.43L240.19 8.43L240.19 8.43Q240.33 8.41 240.38 8.41L240.38 8.41L240.38 8.41Q240.44 8.41 240.50 8.41L240.50 8.41L240.50 8.41Q240.18 9.39 239.86 10.53L239.86 10.53L239.86 10.53Q239.79 10.79 240.45 10.67L240.45 10.67L240.45 10.67Q240.75 10.62 241.00 10.49L241.00 10.49L241.00 10.49Q241.27 10.37 241.30 10.27L241.30 10.27L241.30 10.27Q241.57 9.32 241.84 8.48L241.84 8.48L241.84 8.48Q242.14 8.50 242.33 8.47L242.33 8.47L242.33 8.47Q243.04 8.39 243.39 8.46L243.39 8.46L243.39 8.46Q243.28 10.55 243.28 12.02L243.28 12.02L243.28 12.02Q243.28 12.10 243.51 12.11L243.51 12.11L243.51 12.11Q243.73 12.12 244.02 12.06L244.02 12.06L244.02 12.06Q244.75 11.91 244.75 11.62L244.75 11.62L244.75 11.62Q244.75 9.90 244.95 6.45L244.95 6.45L244.95 6.45Q245.15 3.00 245.15 1.27L245.15 1.27L245.15 1.27Q245.15 1.18 244.87 1.18L244.87 1.18ZM256.50 5.31L256.50 5.31Q256.35 6.24 255.45 7.18L255.45 7.18L255.45 7.18Q255.26 7.38 255.02 7.58L255.02 7.58L255.02 7.58Q254.96 7.63 254.90 7.68L254.90 7.68L254.90 7.68Q254.68 7.59 254.43 7.58L254.43 7.58L254.43 7.58Q254.99 4.74 255.13 2.66L255.13 2.66L255.13 2.66Q255.40 2.80 255.64 2.99L255.64 2.99L255.64 2.99Q256.15 3.39 256.38 4.03L256.38 4.03L256.38 4.03Q256.61 4.65 256.50 5.31L256.50 5.31ZM253.52 2.40L253.52 2.40Q253.52 2.40 253.54 2.39L253.54 2.39L253.54 2.39Q253.53 2.40 253.52 2.40L253.52 2.40ZM258.46 11.42L258.46 11.42Q257.73 10.88 256.20 8.99L256.20 8.99L256.20 8.99Q255.53 8.17 255.41 8.05L255.41 8.05L255.41 8.05Q255.87 7.84 256.30 7.50L256.30 7.50L256.30 7.50Q257.50 6.56 257.86 5.41L257.86 5.41L257.86 5.41Q258.10 4.60 257.90 3.84L257.90 3.84L257.90 3.84Q257.69 3.07 257.07 2.53L257.07 2.53L257.07 2.53Q255.82 1.46 253.75 1.88L253.75 1.88L253.75 1.88Q253.62 1.91 253.42 1.96L253.42 1.96L253.42 1.96Q252.68 2.14 252.75 2.37L252.75 2.37L252.75 2.37Q252.81 2.58 253.52 2.40L253.52 2.40L253.52 2.40Q253.59 2.39 253.63 2.38L253.63 2.38L253.63 2.38Q253.67 2.37 253.71 2.37L253.71 2.37L253.71 2.37Q253.59 5.11 252.36 10.79L252.36 10.79L252.36 10.79Q252.30 11.04 252.94 10.92L252.94 10.92L252.94 10.92Q253.24 10.87 253.50 10.75L253.50 10.75L253.50 10.75Q253.78 10.62 253.80 10.53L253.80 10.53L253.80 10.53Q254.09 9.17 254.19 8.72L254.19 8.72L254.19 8.72Q254.19 8.72 254.19 8.72L254.19 8.72L254.19 8.72Q254.20 8.72 254.20 8.72L254.20 8.72L254.20 8.72Q254.31 8.85 254.99 9.70L254.99 9.70L254.99 9.70Q256.31 11.34 257.08 11.92L257.08 11.92L257.08 11.92Q257.30 12.09 258.02 11.83L258.02 11.83L258.02 11.83Q258.21 11.76 258.35 11.67L258.35 11.67L258.35 11.67Q258.60 11.52 258.46 11.42L258.46 11.42ZM269.71 2.35L269.71 2.35Q268.75 2.17 267.74 2.15L267.74 2.15L267.74 2.15Q267.65 2.03 267.17 2.11L267.17 2.11L267.17 2.11Q267.07 2.13 266.96 2.16L266.96 2.16L266.96 2.16Q265.89 2.22 264.85 2.46L264.85 2.46L264.85 2.46Q264.11 2.63 264.18 2.88L264.18 2.88L264.18 2.88Q264.23 3.08 264.95 2.91L264.95 2.91L264.95 2.91Q264.96 2.91 264.97 2.90L264.97 2.90L264.97 2.90Q264.99 2.90 265.00 2.89L265.00 2.89L265.00 2.89Q265.08 2.88 265.23 2.85L265.23 2.85L265.23 2.85Q265.40 2.82 265.62 2.80L265.62 2.80L265.62 2.80Q265.91 2.76 266.24 2.75L266.24 2.75L266.24 2.75Q264.82 7.40 264.43 10.96L264.43 10.96L264.43 10.96Q264.42 11.02 264.65 11.03L264.65 11.03L264.65 11.03Q264.86 11.04 265.14 10.99L265.14 10.99L265.14 10.99Q265.86 10.86 265.89 10.56L265.89 10.56L265.89 10.56Q266.27 7.19 267.59 2.78L267.59 2.78L267.59 2.78Q268.06 2.82 268.50 2.91L268.50 2.91L268.50 2.91Q268.93 2.99 269.52 2.72L269.52 2.72L269.52 2.72Q269.68 2.65 269.77 2.54L269.77 2.54L269.77 2.54Q269.92 2.39 269.71 2.35L269.71 2.35ZM280.54 5.50L280.54 5.50Q280.99 4.74 281.20 3.53L281.20 3.53L281.20 3.53Q281.44 2.15 280.94 1.57L280.94 1.57L280.94 1.57Q280.65 1.22 279.90 1.27L279.90 1.27L279.90 1.27Q278.96 1.33 278.07 1.85L278.07 1.85L278.07 1.85Q276.81 2.59 276.21 4.34L276.21 4.34L276.21 4.34Q275.59 6.10 276.21 7.18L276.21 7.18L276.21 7.18Q276.50 7.68 277.87 8.17L277.87 8.17L277.87 8.17Q278.44 8.37 278.65 8.48L278.65 8.48L278.65 8.48Q279.08 8.74 279.17 9.11L279.17 9.11L279.17 9.11Q279.27 9.50 278.93 10.17L278.93 10.17L278.93 10.17Q278.75 10.51 278.47 10.76L278.47 10.76L278.47 10.76Q278.35 10.87 278.20 10.97L278.20 10.97L278.20 10.97Q278.12 11.02 278.10 11.03L278.10 11.03L278.10 11.03Q278.04 11.07 277.98 11.09L277.98 11.09L277.98 11.09Q278.07 11.05 277.95 11.10L277.95 11.10L277.95 11.10Q277.96 11.10 278.02 11.09L278.02 11.09L278.02 11.09Q277.98 11.09 277.93 11.09L277.93 11.09L277.93 11.09Q277.92 11.10 277.83 11.09L277.83 11.09L277.83 11.09Q277.78 11.09 277.63 11.05L277.63 11.05L277.63 11.05Q277.27 10.97 276.97 10.64L276.97 10.64L276.97 10.64Q276.75 10.39 276.66 9.93L276.66 9.93L276.66 9.93Q276.56 9.44 276.79 9.28L276.79 9.28L276.79 9.28Q276.99 9.13 276.96 9.06L276.96 9.06L276.96 9.06Q276.94 8.97 276.71 8.96L276.71 8.96L276.71 8.96Q276.08 8.95 275.67 9.24L275.67 9.24L275.67 9.24Q275.28 9.53 275.21 9.86L275.21 9.86L275.21 9.86Q275.13 10.20 275.28 10.62L275.28 10.62L275.28 10.62Q275.56 11.36 276.42 11.61L276.42 11.61L276.42 11.61Q277.31 11.87 278.58 11.37L278.58 11.37L278.58 11.37Q279.60 10.96 280.16 10.24L280.16 10.24L280.16 10.24Q280.54 9.76 280.63 9.24L280.63 9.24L280.63 9.24Q280.73 8.62 280.35 8.23L280.35 8.23L280.35 8.23Q280.08 7.96 279.52 7.75L279.52 7.75L279.52 7.75Q279.37 7.70 279.06 7.59L279.06 7.59L279.06 7.59Q278.76 7.50 278.63 7.44L278.63 7.44L278.63 7.44Q278.10 7.23 277.82 6.97L277.82 6.97L277.82 6.97Q277.52 6.69 277.42 5.96L277.42 5.96L277.42 5.96Q277.22 4.53 278.17 2.97L278.17 2.97L278.17 2.97Q278.58 2.29 279.09 1.95L279.09 1.95L279.09 1.95Q279.14 1.91 279.23 1.86L279.23 1.86L279.23 1.86Q279.23 1.86 279.28 1.84L279.28 1.84L279.28 1.84Q279.27 1.84 279.31 1.83L279.31 1.83L279.31 1.83Q279.28 1.84 279.32 1.83L279.32 1.83L279.32 1.83Q279.25 1.85 279.17 1.85L279.17 1.85L279.17 1.85Q279.19 1.85 279.18 1.85L279.18 1.85L279.20 1.85L279.20 1.85Q279.25 1.86 279.34 1.89L279.34 1.89L279.34 1.89Q279.35 1.89 279.45 1.96L279.45 1.96L279.45 1.96Q279.51 2.01 279.56 2.06L279.56 2.06L279.56 2.06Q279.67 2.20 279.74 2.45L279.74 2.45L279.74 2.45Q279.86 2.84 279.79 3.49L279.79 3.49L279.79 3.49Q279.67 4.81 279.10 5.76L279.10 5.76L279.10 5.76Q279.01 5.90 279.32 5.91L279.32 5.91L279.32 5.91Q279.51 5.92 279.68 5.89L279.68 5.89L279.68 5.89Q280.38 5.76 280.54 5.50L280.54 5.50ZM303.03 1.31L303.03 1.31Q302.72 1.36 302.47 1.48L302.47 1.48L302.47 1.48Q302.19 1.61 302.17 1.70L302.17 1.70L302.17 1.70Q301.97 2.55 301.52 4.25L301.52 4.25L301.52 4.25Q301.07 5.94 300.87 6.80L300.87 6.80L300.87 6.80Q300.22 6.88 299.54 7.03L299.54 7.03L299.54 7.03Q299.75 6.04 300.16 4.31L300.16 4.31L300.16 4.31Q300.62 2.37 300.79 1.59L300.79 1.59L300.79 1.59Q300.84 1.34 300.21 1.46L300.21 1.46L300.21 1.46Q299.91 1.51 299.65 1.63L299.65 1.63L299.65 1.63Q299.37 1.76 299.35 1.85L299.35 1.85L299.35 1.85Q299.18 2.61 298.70 4.64L298.70 4.64L298.70 4.64Q298.29 6.41 298.07 7.44L298.07 7.44L298.07 7.44Q297.94 7.49 297.90 7.50L297.90 7.50L297.90 7.50Q297.75 7.55 297.58 7.66L297.58 7.66L297.58 7.66Q297.33 7.82 297.47 7.91L297.47 7.91L297.47 7.91Q297.64 8.01 297.97 7.94L297.97 7.94L297.97 7.94Q297.65 9.65 297.53 11.08L297.53 11.08L297.53 11.08Q297.52 11.15 297.75 11.16L297.75 11.16L297.75 11.16Q297.96 11.17 298.24 11.12L298.24 11.12L298.24 11.12Q298.96 10.98 298.98 10.69L298.98 10.69L298.98 10.69Q299.11 9.26 299.44 7.53L299.44 7.53L299.44 7.53Q299.65 7.49 300.00 7.42L300.00 7.42L300.00 7.42Q300.37 7.36 300.75 7.33L300.75 7.33L300.75 7.33Q300.28 9.44 300.19 11.13L300.19 11.13L300.19 11.13Q300.19 11.20 300.42 11.21L300.42 11.21L300.42 11.21Q300.63 11.22 300.91 11.17L300.91 11.17L300.91 11.17Q301.64 11.03 301.66 10.74L301.66 10.74L301.66 10.74Q301.74 9.17 302.15 7.25L302.15 7.25L302.15 7.25Q302.48 7.18 302.74 7.02L302.74 7.02L302.74 7.02Q302.92 6.91 302.89 6.82L302.89 6.82L302.89 6.82Q302.87 6.72 302.66 6.71L302.66 6.71L302.66 6.71Q302.49 6.71 302.26 6.71L302.26 6.71L302.26 6.71Q302.48 5.79 302.93 4.07L302.93 4.07L302.93 4.07Q303.41 2.28 303.61 1.44L303.61 1.44L303.61 1.44Q303.67 1.19 303.03 1.31L303.03 1.31ZM314.84 1.42L314.84 1.42Q314.13 1.19 312.94 1.57L312.94 1.57L312.94 1.57Q311.43 2.06 310.87 3.77L310.87 3.77L310.87 3.77Q310.52 4.83 310.70 6.11L310.70 6.11L310.70 6.11Q310.79 6.76 311.06 7.16L311.06 7.16L311.06 7.16Q310.64 7.38 310.34 7.70L310.34 7.70L310.34 7.70Q309.35 8.80 309.46 10.01L309.46 10.01L309.46 10.01Q309.52 10.70 310.00 11.11L310.00 11.11L310.00 11.11Q310.40 11.44 311.23 11.42L311.23 11.42L311.23 11.42Q312.06 11.39 312.76 10.95L312.76 10.95L312.76 10.95Q313.52 10.49 313.82 9.76L313.82 9.76L313.82 9.76Q313.88 9.61 313.60 9.60L313.60 9.60L313.60 9.60Q313.43 9.59 313.24 9.63L313.24 9.63L313.24 9.63Q312.48 9.76 312.38 10.02L312.38 10.02L312.38 10.02Q312.18 10.51 311.83 10.80L311.83 10.80L311.83 10.80Q311.82 10.81 311.81 10.82L311.81 10.82L311.81 10.82Q311.76 10.81 311.75 10.81L311.75 10.81L311.75 10.81Q311.68 10.79 311.60 10.75L311.60 10.75L311.60 10.75Q311.44 10.68 311.28 10.52L311.28 10.52L311.28 10.52Q310.99 10.23 310.92 9.63L310.92 9.63L310.92 9.63Q310.82 8.83 311.45 7.86L311.45 7.86L311.45 7.86Q311.53 7.74 311.64 7.62L311.64 7.62L311.64 7.62Q311.85 7.70 312.12 7.72L312.12 7.72L312.12 7.72Q312.53 7.74 313.02 7.51L313.02 7.51L313.02 7.51Q313.43 7.32 313.28 7.18L313.28 7.18L313.28 7.18Q313.00 6.90 312.57 6.84L312.57 6.84L312.57 6.84Q312.53 6.79 312.50 6.75L312.50 6.75L312.50 6.75Q312.29 6.45 312.18 5.89L312.18 5.89L312.18 5.89Q311.99 4.89 312.18 4.00L312.18 4.00L312.18 4.00Q312.44 2.70 313.21 2.04L313.21 2.04L313.21 2.04Q313.26 2.00 313.36 1.93L313.36 1.93L313.36 1.93Q313.37 1.93 313.37 1.93L313.37 1.93L313.37 1.93Q313.50 1.94 313.48 1.93L313.48 1.93L313.48 1.93Q314.06 2.02 313.94 2.62L313.94 2.62L313.94 2.62Q313.89 2.86 314.52 2.75L314.52 2.75L314.52 2.75Q314.83 2.69 315.08 2.58L315.08 2.58L315.08 2.58Q315.36 2.45 315.38 2.36L315.38 2.36L315.38 2.36Q315.52 1.63 314.84 1.42L314.84 1.42ZM325.09 5.31L325.09 5.31Q324.94 6.24 324.04 7.18L324.04 7.18L324.04 7.18Q323.85 7.38 323.61 7.58L323.61 7.58L323.61 7.58Q323.55 7.63 323.49 7.68L323.49 7.68L323.49 7.68Q323.27 7.59 323.02 7.58L323.02 7.58L323.02 7.58Q323.58 4.74 323.72 2.66L323.72 2.66L323.72 2.66Q323.99 2.80 324.23 2.99L324.23 2.99L324.23 2.99Q324.74 3.39 324.97 4.03L324.97 4.03L324.97 4.03Q325.20 4.65 325.09 5.31L325.09 5.31ZM322.12 2.40L322.12 2.40Q322.12 2.40 322.13 2.39L322.13 2.39L322.13 2.39Q322.12 2.40 322.12 2.40L322.12 2.40ZM327.05 11.42L327.05 11.42Q326.32 10.88 324.79 8.99L324.79 8.99L324.79 8.99Q324.12 8.17 324.00 8.05L324.00 8.05L324.00 8.05Q324.46 7.84 324.89 7.50L324.89 7.50L324.89 7.50Q326.09 6.56 326.45 5.41L326.45 5.41L326.45 5.41Q326.70 4.60 326.49 3.84L326.49 3.84L326.49 3.84Q326.28 3.07 325.66 2.53L325.66 2.53L325.66 2.53Q324.41 1.46 322.34 1.88L322.34 1.88L322.34 1.88Q322.21 1.91 322.01 1.96L322.01 1.96L322.01 1.96Q321.28 2.14 321.34 2.37L321.34 2.37L321.34 2.37Q321.40 2.58 322.11 2.40L322.11 2.40L322.11 2.40Q322.18 2.39 322.23 2.38L322.23 2.38L322.23 2.38Q322.27 2.37 322.30 2.37L322.30 2.37L322.30 2.37Q322.18 5.11 320.95 10.79L320.95 10.79L320.95 10.79Q320.89 11.04 321.53 10.92L321.53 10.92L321.53 10.92Q321.84 10.87 322.09 10.75L322.09 10.75L322.09 10.75Q322.37 10.62 322.39 10.53L322.39 10.53L322.39 10.53Q322.68 9.17 322.78 8.72L322.78 8.72L322.78 8.72Q322.79 8.72 322.79 8.72L322.79 8.72L322.79 8.72Q322.79 8.72 322.79 8.72L322.79 8.72L322.79 8.72Q322.90 8.85 323.59 9.70L323.59 9.70L323.59 9.70Q324.91 11.34 325.67 11.92L325.67 11.92L325.67 11.92Q325.90 12.09 326.61 11.83L326.61 11.83L326.61 11.83Q326.80 11.76 326.94 11.67L326.94 11.67L326.94 11.67Q327.19 11.52 327.05 11.42L327.05 11.42ZM338.15 1.42L338.15 1.42Q337.44 1.19 336.25 1.57L336.25 1.57L336.25 1.57Q334.74 2.06 334.18 3.77L334.18 3.77L334.18 3.77Q333.83 4.83 334.01 6.11L334.01 6.11L334.01 6.11Q334.10 6.76 334.37 7.16L334.37 7.16L334.37 7.16Q333.95 7.38 333.66 7.70L333.66 7.70L333.66 7.70Q332.66 8.80 332.77 10.01L332.77 10.01L332.77 10.01Q332.83 10.70 333.31 11.11L333.31 11.11L333.31 11.11Q333.71 11.44 334.54 11.42L334.54 11.42L334.54 11.42Q335.37 11.39 336.08 10.95L336.08 10.95L336.08 10.95Q336.83 10.49 337.13 9.76L337.13 9.76L337.13 9.76Q337.19 9.61 336.91 9.60L336.91 9.60L336.91 9.60Q336.74 9.59 336.55 9.63L336.55 9.63L336.55 9.63Q335.79 9.76 335.69 10.02L335.69 10.02L335.69 10.02Q335.49 10.51 335.15 10.80L335.15 10.80L335.15 10.80Q335.13 10.81 335.12 10.82L335.12 10.82L335.12 10.82Q335.07 10.81 335.06 10.81L335.06 10.81L335.06 10.81Q335.00 10.79 334.91 10.75L334.91 10.75L334.91 10.75Q334.75 10.68 334.59 10.52L334.59 10.52L334.59 10.52Q334.30 10.23 334.23 9.63L334.23 9.63L334.23 9.63Q334.13 8.83 334.76 7.86L334.76 7.86L334.76 7.86Q334.84 7.74 334.95 7.62L334.95 7.62L334.95 7.62Q335.16 7.70 335.43 7.72L335.43 7.72L335.43 7.72Q335.84 7.74 336.33 7.51L336.33 7.51L336.33 7.51Q336.75 7.32 336.59 7.18L336.59 7.18L336.59 7.18Q336.31 6.90 335.88 6.84L335.88 6.84L335.88 6.84Q335.84 6.79 335.81 6.75L335.81 6.75L335.81 6.75Q335.60 6.45 335.49 5.89L335.49 5.89L335.49 5.89Q335.30 4.89 335.49 4.00L335.49 4.00L335.49 4.00Q335.75 2.70 336.52 2.04L336.52 2.04L336.52 2.04Q336.57 2.00 336.67 1.93L336.67 1.93L336.67 1.93Q336.68 1.93 336.68 1.93L336.68 1.93L336.68 1.93Q336.81 1.94 336.79 1.93L336.79 1.93L336.79 1.93Q337.37 2.02 337.25 2.62L337.25 2.62L337.25 2.62Q337.20 2.86 337.83 2.75L337.83 2.75L337.83 2.75Q338.14 2.69 338.39 2.58L338.39 2.58L338.39 2.58Q338.67 2.45 338.69 2.36L338.69 2.36L338.69 2.36Q338.83 1.63 338.15 1.42L338.15 1.42Z"></path></g></svg>