<svg data-v-423bf9ae="" xmlns="http://www.w3.org/2000/svg" viewBox="0 0 266.15679554490043 60" class="font"><!----><!----><!----><g data-v-423bf9ae="" id="80ac2911-b953-4ef3-947f-294bb7503d60" fill="white" transform="matrix(5.736137646384677,0,0,5.736137646384677,-4.07265864072366,-21.682600377640448)"><path d="M3.72 14.22L3.72 14.22L3.72 14.22Q2.42 14.22 1.57 13.17L1.57 13.17L1.57 13.17Q0.71 12.11 0.71 10.40L0.71 10.40L0.71 10.40Q0.71 8.69 1.30 7.29L1.30 7.29L1.30 7.29Q1.89 5.88 2.98 5.00L2.98 5.00L2.98 5.00Q4.07 4.12 5.31 4.12L5.31 4.12L5.31 4.12Q6.55 4.12 7.32 4.68L7.32 4.68L7.32 4.68Q8.08 5.24 8.08 6.01L8.08 6.01L8.08 6.01Q8.08 6.79 7.62 7.34L7.62 7.34L7.62 7.34Q7.17 7.34 6.61 7.14L6.61 7.14L6.61 7.14Q6.05 6.94 5.77 6.66L5.77 6.66L6.03 5.25L6.03 5.25Q5.70 5.04 5.15 5.04L5.15 5.04L5.15 5.04Q4.30 5.04 3.64 6.50L3.64 6.50L3.64 6.50Q2.98 7.97 2.98 10.11L2.98 10.11L2.98 10.11Q2.98 11.52 3.45 12.16L3.45 12.16L3.45 12.16Q3.92 12.80 4.59 12.80L4.59 12.80L4.59 12.80Q5.70 12.80 6.72 11.76L6.72 11.76L7.29 12.28L7.29 12.28Q7.14 12.50 6.73 12.89L6.73 12.89L6.73 12.89Q6.33 13.29 5.94 13.55L5.94 13.55L5.94 13.55Q5.54 13.80 4.94 14.01L4.94 14.01L4.94 14.01Q4.34 14.22 3.72 14.22ZM10.91 8.72L10.91 8.72L10.91 8.72Q10.91 9.31 10.53 10.75L10.53 10.75L10.53 10.75Q10.15 12.18 10.15 12.62L10.15 12.62L10.15 12.62Q10.15 13.06 10.28 13.06L10.28 13.06L10.28 13.06Q10.36 13.06 10.92 12.80L10.92 12.80L11.09 12.71L11.33 13.20L11.33 13.20Q11.20 13.31 10.99 13.48L10.99 13.48L10.99 13.48Q10.78 13.65 10.21 13.94L10.21 13.94L10.21 13.94Q9.63 14.22 9.14 14.22L9.14 14.22L9.14 14.22Q8.65 14.22 8.37 13.92L8.37 13.92L8.37 13.92Q8.09 13.62 8.09 13.11L8.09 13.11L8.09 13.11Q8.09 12.60 8.44 11.29L8.44 11.29L8.44 11.29Q8.79 9.98 8.79 9.59L8.79 9.59L8.79 9.59Q8.79 9.00 8.43 8.48L8.43 8.48L8.30 8.32L8.32 8.13L8.32 8.13Q9.06 7.92 10.72 7.92L10.72 7.92L10.72 7.92Q10.91 8.13 10.91 8.72ZM9.31 6.39L9.31 6.39L9.31 6.39Q9.03 6.12 9.03 5.66L9.03 5.66L9.03 5.66Q9.03 5.19 9.41 4.84L9.41 4.84L9.41 4.84Q9.80 4.49 10.30 4.49L10.30 4.49L10.30 4.49Q10.81 4.49 11.09 4.77L11.09 4.77L11.09 4.77Q11.37 5.05 11.37 5.51L11.37 5.51L11.37 5.51Q11.37 5.96 10.97 6.31L10.97 6.31L10.97 6.31Q10.57 6.66 10.08 6.66L10.08 6.66L10.08 6.66Q9.59 6.66 9.31 6.39ZM12.19 14.10L12.19 14.10L11.93 14.10L11.93 14.10Q11.93 13.44 12.33 11.58L12.33 11.58L12.33 11.58Q12.73 9.72 12.73 9.46L12.73 9.46L12.73 9.46Q12.73 9.00 12.33 8.48L12.33 8.48L12.21 8.32L12.22 8.13L12.22 8.13Q12.98 7.92 14.64 7.92L14.64 7.92L14.64 7.92Q14.83 8.16 14.84 8.79L14.84 8.79L14.84 8.79Q16.06 7.85 16.90 7.85L16.90 7.85L16.90 7.85Q17.40 7.85 17.70 8.20L17.70 8.20L17.70 8.20Q18.00 8.55 18.00 9.08L18.00 9.08L18.00 9.08Q18.00 9.60 17.68 10.89L17.68 10.89L17.68 10.89Q17.36 12.18 17.36 12.62L17.36 12.62L17.36 12.62Q17.36 13.06 17.47 13.06L17.47 13.06L17.47 13.06Q17.56 13.06 18.06 12.80L18.06 12.80L18.23 12.71L18.48 13.20L18.48 13.20Q18.35 13.31 18.14 13.48L18.14 13.48L18.14 13.48Q17.93 13.65 17.37 13.94L17.37 13.94L17.37 13.94Q16.80 14.22 16.35 14.22L16.35 14.22L16.35 14.22Q15.33 14.22 15.33 13.06L15.33 13.06L15.33 13.06Q15.33 12.57 15.64 11.26L15.64 11.26L15.64 11.26Q15.96 9.94 15.96 9.56L15.96 9.56L15.96 9.56Q15.96 9.18 15.72 9.18L15.72 9.18L15.72 9.18Q15.32 9.18 14.73 9.53L14.73 9.53L14.73 9.53Q14.69 9.77 14.45 10.79L14.45 10.79L14.45 10.79Q13.96 12.99 13.96 13.90L13.96 13.90L13.96 13.90Q13.47 14.10 12.19 14.10ZM18.87 11.63L18.87 11.63L18.87 11.63Q18.87 9.88 19.93 8.87L19.93 8.87L19.93 8.87Q20.99 7.85 22.33 7.85L22.33 7.85L22.33 7.85Q23.16 7.85 23.69 8.26L23.69 8.26L23.69 8.26Q24.22 8.67 24.22 9.35L24.22 9.35L24.22 9.35Q24.22 10.02 23.88 10.49L23.88 10.49L23.88 10.49Q23.53 10.95 23.04 11.20L23.04 11.20L23.04 11.20Q22.05 11.69 21.22 11.82L21.22 11.82L20.89 11.86L20.89 11.86Q20.99 13.17 21.97 13.17L21.97 13.17L21.97 13.17Q22.30 13.17 22.68 13.01L22.68 13.01L22.68 13.01Q23.06 12.84 23.27 12.67L23.27 12.67L23.48 12.50L23.81 12.95L23.81 12.95Q23.70 13.10 23.37 13.36L23.37 13.36L23.37 13.36Q23.03 13.61 22.74 13.78L22.74 13.78L22.74 13.78Q21.92 14.22 20.96 14.22L20.96 14.22L20.96 14.22Q19.99 14.22 19.43 13.54L19.43 13.54L19.43 13.54Q18.87 12.85 18.87 11.63ZM20.87 11.17L20.87 11.17Q21.59 11.05 22.01 10.57L22.01 10.57L22.01 10.57Q22.43 10.09 22.43 9.34L22.43 9.34L22.43 9.34Q22.43 8.58 21.98 8.58L21.98 8.58L21.98 8.58Q21.45 8.58 21.16 9.49L21.16 9.49L21.16 9.49Q20.87 10.39 20.87 11.17L20.87 11.17ZM31.09 14.22L31.09 14.22Q30.55 14.22 30.20 13.87L30.20 13.87L30.20 13.87Q29.85 13.51 29.85 12.90L29.85 12.90L29.85 12.90Q29.85 12.29 30.46 9.45L30.46 9.45L30.46 9.45Q30.10 9.37 29.29 9.37L29.29 9.37L29.29 9.37Q28.48 9.37 27.73 9.51L27.73 9.51L27.73 9.51Q27.02 12.73 26.98 13.82L26.98 13.82L26.98 13.82Q26.47 14.10 24.85 14.10L24.85 14.10L24.71 14.10L24.71 14.10Q24.75 13.48 25.46 10.42L25.46 10.42L25.46 10.42Q26.17 7.35 26.33 5.81L26.33 5.81L26.33 5.81Q26.33 5.59 26.19 5.27L26.19 5.27L26.19 5.27Q26.05 4.96 25.91 4.76L25.91 4.76L25.76 4.56L25.80 4.35L25.80 4.35Q26.63 4.12 28.42 4.12L28.42 4.12L28.42 4.12Q28.59 4.40 28.59 5.03L28.59 5.03L28.59 5.03Q28.59 5.66 27.96 8.50L27.96 8.50L30.66 8.50L30.66 8.50Q31.15 6.01 31.16 4.94L31.16 4.94L31.16 4.94Q31.16 4.70 31.14 4.55L31.14 4.55L31.14 4.55Q32.26 4.12 33.39 4.12L33.39 4.12L33.39 4.12Q33.43 4.20 33.43 4.54L33.43 4.54L33.43 4.54Q33.43 5.31 32.75 8.50L32.75 8.50L32.75 8.50Q32.07 11.69 32.07 12.56L32.07 12.56L32.07 12.56Q32.07 12.94 32.20 12.94L32.20 12.94L32.20 12.94Q32.33 12.94 33.05 12.57L33.05 12.57L33.31 13.09L33.31 13.09Q32.06 14.22 31.09 14.22L31.09 14.22ZM34.16 13.00L34.16 13.00L34.16 13.00Q34.16 12.40 34.52 10.96L34.52 10.96L34.52 10.96Q34.89 9.51 34.89 9.18L34.89 9.18L34.89 9.18Q34.89 8.85 34.38 8.30L34.38 8.30L34.40 8.12L34.40 8.12Q35.35 7.92 36.90 7.92L36.90 7.92L36.90 7.92Q36.97 8.11 36.97 8.58L36.97 8.58L36.97 8.58Q36.97 9.06 36.58 10.61L36.58 10.61L36.58 10.61Q36.19 12.17 36.19 12.54L36.19 12.54L36.19 12.54Q36.19 12.92 36.47 12.92L36.47 12.92L36.47 12.92Q36.88 12.92 37.41 12.63L37.41 12.63L37.41 12.63Q37.46 12.29 37.69 11.34L37.69 11.34L37.69 11.34Q38.19 9.10 38.19 8.13L38.19 8.13L38.19 8.13Q38.68 7.94 39.96 7.94L39.96 7.94L40.22 7.94L40.22 7.94Q40.22 8.60 39.83 10.51L39.83 10.51L39.83 10.51Q39.44 12.42 39.44 12.75L39.44 12.75L39.44 12.75Q39.44 13.08 39.58 13.08L39.58 13.08L39.58 13.08Q39.66 13.08 40.38 12.74L40.38 12.74L40.64 13.19L40.64 13.19Q39.40 14.22 38.46 14.22L38.46 14.22L38.46 14.22Q38.01 14.22 37.70 13.97L37.70 13.97L37.70 13.97Q37.38 13.72 37.34 13.31L37.34 13.31L37.34 13.31Q36.20 14.24 35.28 14.24L35.28 14.24L35.28 14.24Q34.79 14.24 34.48 13.92L34.48 13.92L34.48 13.92Q34.16 13.59 34.16 13.00ZM44.66 4.28L44.66 4.28L44.66 4.28Q44.66 5.35 43.95 8.46L43.95 8.46L43.95 8.46Q44.79 7.85 45.46 7.85L45.46 7.85L45.46 7.85Q46.14 7.85 46.63 8.42L46.63 8.42L46.63 8.42Q47.11 8.99 47.11 10.15L47.11 10.15L47.11 10.15Q47.11 12.10 46.35 13.16L46.35 13.16L46.35 13.16Q45.58 14.22 44.49 14.22L44.49 14.22L44.49 14.22Q44.09 14.22 43.67 14.13L43.67 14.13L43.67 14.13Q43.26 14.03 43.05 13.92L43.05 13.92L42.84 13.82L42.84 13.82Q41.94 14.13 41.09 14.13L41.09 14.13L41.09 14.13Q41.01 14.06 41.01 13.45L41.01 13.45L41.01 13.45Q41.01 12.84 41.79 9.42L41.79 9.42L41.79 9.42Q42.57 5.99 42.57 4.73L42.57 4.73L42.57 4.73Q42.57 4.51 42.50 4.16L42.50 4.16L42.50 4.16Q43.60 3.78 44.59 3.78L44.59 3.78L44.59 3.78Q44.66 3.98 44.66 4.28ZM44.53 9.04L44.53 9.04L44.53 9.04Q44.27 9.04 43.74 9.30L43.74 9.30L43.74 9.30Q43.09 12.01 43.04 13.19L43.04 13.19L43.04 13.19Q43.46 13.37 43.83 13.37L43.83 13.37L43.83 13.37Q44.37 13.37 44.72 12.39L44.72 12.39L44.72 12.39Q45.08 11.41 45.08 10.23L45.08 10.23L45.08 10.23Q45.08 9.04 44.53 9.04Z"></path></g><!----><!----></svg>